<?xml version="1.0" standalone="no"?>
<!DOCTYPE svg PUBLIC "-//W3C//DTD SVG 20010904//EN"
 "http://www.w3.org/TR/2001/REC-SVG-20010904/DTD/svg10.dtd">
<svg version="1.0" xmlns="http://www.w3.org/2000/svg"
 width="1002.000000pt" height="1002.000000pt" viewBox="0 0 1002.000000 1002.000000"
 preserveAspectRatio="xMidYMid meet">
<metadata>
Created by potrace 1.11, written by Peter Selinger 2001-2013
</metadata>
<g transform="translate(0.000000,1002.000000) scale(0.100000,-0.100000)"
fill="#000000" stroke="none">
<path d="M0 5910 l0 -3419 23 -12 c12 -7 24 -15 27 -18 3 -3 30 -18 60 -34 30
-15 91 -46 135 -70 136 -73 238 -128 290 -157 28 -15 84 -45 125 -67 98 -52
203 -109 265 -143 28 -15 78 -42 112 -59 34 -18 65 -36 68 -41 4 -6 15 -10 26
-10 10 0 19 -4 19 -9 0 -5 12 -14 28 -20 15 -6 68 -33 117 -60 50 -27 115 -63
145 -79 30 -16 80 -42 110 -59 30 -17 93 -51 140 -75 47 -25 105 -56 130 -70
52 -29 208 -113 260 -140 38 -20 147 -78 220 -118 25 -13 51 -29 59 -34 7 -6
20 -11 28 -12 7 -1 20 -8 28 -14 8 -7 39 -25 70 -41 84 -44 169 -91 183 -102
6 -5 12 -6 12 -1 0 5 4 4 8 -1 4 -6 30 -22 57 -36 167 -88 231 -124 237 -133
4 -6 8 -7 8 -3 0 4 19 -3 42 -17 55 -32 202 -112 248 -134 19 -9 38 -21 42
-26 6 -9 74 22 213 99 44 25 109 59 145 77 36 18 67 36 70 39 3 3 52 31 110
61 58 30 137 72 175 93 39 21 102 54 140 74 39 20 72 38 75 41 6 6 29 19 110
60 36 19 67 37 70 41 3 3 16 10 30 14 14 4 27 10 30 14 3 3 39 24 80 45 41 22
91 48 110 59 19 11 76 41 125 67 87 46 151 81 245 132 25 14 86 47 135 73 103
55 198 106 270 145 50 28 73 40 260 141 162 87 216 116 295 158 41 21 95 50
120 64 25 14 70 39 100 55 30 16 80 42 110 59 30 17 80 43 110 59 30 15 57 30
60 33 3 4 32 19 65 36 33 16 63 33 66 37 13 19 60 7 134 -34 88 -49 186 -102
345 -185 58 -31 113 -63 124 -72 10 -9 20 -15 22 -13 3 2 41 -17 87 -42 45
-24 94 -50 110 -57 15 -7 27 -16 27 -21 0 -4 8 -8 18 -8 10 0 22 -4 28 -9 5
-5 50 -31 99 -57 50 -26 107 -58 128 -71 20 -13 37 -21 37 -18 0 2 21 -9 47
-25 26 -17 52 -30 59 -30 7 0 14 -3 16 -7 1 -5 19 -16 38 -25 19 -10 71 -37
115 -61 44 -24 121 -65 170 -91 50 -27 113 -61 140 -76 28 -15 86 -46 129 -69
44 -23 84 -45 90 -50 6 -4 65 -36 131 -71 66 -35 134 -71 151 -80 17 -10 75
-41 130 -70 54 -29 124 -66 154 -83 30 -16 80 -43 110 -60 30 -16 79 -43 108
-59 28 -16 52 -25 52 -21 0 4 4 3 8 -3 4 -6 48 -32 97 -59 50 -27 122 -66 160
-87 39 -21 95 -50 125 -65 30 -16 57 -31 60 -34 3 -4 33 -21 68 -38 l62 -31
-2 3421 c-3 3410 -3 3422 -23 3433 -11 6 -22 13 -25 16 -3 3 -21 13 -40 22
-19 10 -80 42 -135 72 -55 30 -118 64 -140 75 -22 11 -101 54 -175 94 -74 41
-180 98 -235 127 -55 29 -115 62 -133 72 -19 10 -73 39 -120 65 -48 25 -121
64 -162 86 -41 23 -95 52 -120 65 -25 13 -63 33 -85 46 -22 12 -83 45 -135 73
-52 28 -115 62 -140 75 -25 14 -85 47 -135 73 -49 27 -124 67 -165 89 -41 23
-93 50 -115 60 -22 11 -42 22 -45 25 -3 4 -27 18 -55 32 -27 14 -70 37 -95 49
-25 13 -79 42 -120 65 -41 23 -111 61 -155 85 -131 69 -256 137 -315 169 -30
16 -80 43 -110 58 -30 16 -80 43 -110 60 -30 17 -99 54 -153 82 l-97 51 -68
-36 c-37 -20 -94 -51 -127 -69 -167 -90 -224 -121 -270 -144 -27 -14 -51 -29
-53 -33 -2 -5 -8 -8 -14 -8 -5 0 -36 -16 -69 -35 -32 -19 -59 -32 -59 -30 0 2
-39 -19 -87 -46 -48 -28 -101 -57 -118 -65 -16 -8 -48 -25 -70 -37 -22 -12
-89 -49 -150 -81 -136 -73 -227 -122 -285 -154 -25 -14 -85 -46 -135 -72 -49
-27 -106 -56 -125 -66 -19 -11 -38 -23 -42 -29 -4 -5 -8 -7 -8 -2 0 4 -18 -4
-40 -18 -22 -14 -44 -25 -49 -25 -5 0 -11 -3 -13 -7 -1 -5 -32 -23 -68 -41
-82 -42 -185 -98 -227 -124 -18 -11 -33 -17 -33 -13 0 4 -12 -3 -26 -14 -15
-12 -32 -21 -40 -21 -7 0 -14 -3 -16 -7 -1 -5 -41 -28 -88 -52 -47 -25 -107
-57 -135 -72 -27 -15 -70 -38 -95 -50 -25 -13 -53 -30 -63 -38 -9 -8 -17 -10
-17 -5 0 5 -4 5 -8 -1 -4 -5 -22 -18 -41 -28 -41 -21 -223 -119 -306 -164 -33
-17 -85 -44 -115 -60 -30 -15 -57 -30 -60 -33 -3 -3 -27 -17 -55 -31 -27 -15
-76 -41 -107 -58 -51 -28 -60 -30 -80 -19 -13 7 -25 15 -28 18 -3 3 -21 13
-40 22 -19 10 -71 37 -115 61 -44 23 -129 69 -190 101 -60 32 -114 62 -120 66
-5 4 -57 32 -115 62 -168 89 -224 119 -237 130 -7 6 -13 7 -13 3 0 -5 -8 -1
-18 7 -9 9 -46 31 -82 48 -36 18 -73 40 -84 49 -10 9 -20 15 -22 13 -3 -2 -54
24 -115 57 -60 34 -112 61 -115 61 -3 0 -19 9 -35 21 -16 11 -29 17 -29 12 0
-4 -4 -3 -8 2 -4 6 -36 26 -72 44 -36 19 -90 48 -120 65 -85 47 -211 115 -250
134 -19 9 -38 22 -42 27 -5 7 -8 7 -8 0 0 -7 -3 -7 -8 0 -7 10 -18 16 -152 87
-41 22 -97 52 -125 66 -27 15 -95 52 -150 81 -55 30 -139 76 -188 102 -48 27
-90 49 -93 49 -3 0 -19 9 -35 21 -16 11 -29 17 -29 13 0 -3 -7 -1 -15 6 -17
14 -67 42 -170 96 -38 20 -92 48 -120 63 -27 15 -99 54 -160 86 -60 32 -121
66 -135 75 -14 9 -37 21 -52 28 l-28 12 0 -3420z m6680 3 c0 -1567 -4 -2852
-8 -2858 -4 -5 -36 -25 -72 -43 -71 -37 -200 -105 -270 -144 -25 -14 -81 -44
-125 -68 -44 -23 -86 -47 -92 -52 -7 -6 -13 -7 -13 -3 0 5 -9 0 -20 -10 -11
-10 -20 -14 -20 -9 0 5 -4 4 -8 -2 -7 -12 -56 -39 -124 -69 -21 -10 -38 -21
-38 -26 0 -5 -7 -9 -15 -9 -8 0 -37 -13 -65 -30 -28 -16 -55 -30 -60 -30 -6 0
-10 -5 -10 -12 0 -6 -3 -9 -6 -5 -3 3 -24 -5 -45 -19 -21 -13 -42 -24 -46 -24
-5 0 -25 -11 -45 -25 -20 -14 -44 -25 -52 -25 -9 0 -16 -3 -16 -7 0 -5 -10
-13 -23 -19 -96 -47 -173 -90 -179 -98 -4 -6 -8 -7 -8 -2 0 5 -6 4 -12 -2 -15
-12 -51 -32 -183 -102 -55 -29 -120 -64 -145 -78 -25 -13 -72 -39 -105 -57
-33 -18 -100 -54 -150 -80 -49 -27 -105 -57 -123 -66 -18 -10 -39 -23 -47 -29
-8 -7 -15 -9 -15 -6 0 4 -12 -1 -27 -12 -16 -11 -62 -36 -103 -57 -41 -21 -77
-40 -80 -44 -3 -3 -30 -18 -60 -33 -87 -43 -221 -116 -236 -129 -8 -6 -14 -8
-14 -5 0 4 -12 -1 -27 -12 -16 -10 -82 -46 -148 -79 -66 -33 -145 -73 -175
-90 -30 -17 -95 -52 -145 -78 -49 -26 -110 -58 -134 -71 -24 -13 -46 -24 -48
-24 -1 0 -2 1278 -1 2841 l3 2840 55 31 c30 16 61 35 68 40 6 6 12 7 12 3 0
-5 8 -1 18 7 9 8 53 34 97 58 183 97 232 125 261 148 17 14 35 25 40 25 5 0
26 11 46 23 21 13 39 24 41 24 2 0 87 45 188 100 101 56 207 112 234 126 28
14 64 33 80 43 17 10 68 38 115 63 174 93 227 121 285 153 168 91 310 168 400
215 55 29 105 56 110 60 6 4 55 31 110 60 140 74 188 101 203 112 6 6 12 8 12
4 0 -3 22 8 49 24 26 17 53 30 60 30 6 0 11 5 11 10 0 6 5 10 12 10 6 0 55 24
107 54 53 29 131 72 173 94 42 23 113 61 157 86 44 26 85 46 90 46 5 0 16 6
23 13 7 6 51 32 98 56 47 24 103 55 125 67 22 13 43 23 48 24 4 0 7 -1281 7
-2847z"/>
</g>
</svg>
